HIERARCHY
ROOT Hips
{
	OFFSET 0.000000 0.000000 0.000000 
	CHANNELS 6 Xposition Yposition Zposition Yrotation Zrotation Xrotation 
	JOINT Lumbar
	{
		OFFSET 0.000000 0.000000 0.000000 
		CHANNELS 3 Zrotation Xrotation Yrotation
		JOINT Neck
		{
			OFFSET 0.000000 0.445665 0.000000 
			CHANNELS 3 Zrotation Xrotation Yrotation
			End Site
			{
				OFFSET 0.000000 0.227535 0.000000 
			}
		}
		JOINT RightShoulder
		{
			OFFSET 0.019635 0.377685 0.194865 
			CHANNELS 3 Zrotation Xrotation Yrotation
			JOINT RightElbow
			{
				OFFSET 0.000000 -0.243375 0.000000 
				CHANNELS 2 Zrotation Yrotation
				JOINT RightWrist
				{
					OFFSET 0.000000 -0.264825 0.000000 
					CHANNELS 2 Zrotation Xrotation
					End Site
					{
						OFFSET 0.006600 -0.176220 0.000990 
					}
				}
			}
		}
		JOINT LeftShoulder
		{
			OFFSET 0.019635 0.377685 -0.194865 
			CHANNELS 3 Zrotation Xrotation Yrotation
			JOINT LeftElbow
			{
				OFFSET 0.000000 -0.243375 0.000000 
				CHANNELS 2 Zrotation Yrotation
				JOINT LeftWrist
				{
					OFFSET 0.000000 -0.264825 0.000000 
					CHANNELS 2 Zrotation Xrotation
					End Site
					{
						OFFSET 0.006600 -0.176220 -0.000990 
					}
				}
			}
		}
	}
	JOINT RightHip
	{
		OFFSET 0.052140 -0.069960 0.075570 
		CHANNELS 3 Zrotation Xrotation Yrotation
		JOINT RightKnee
		{
			OFFSET 0.000000 -0.402270 0.000000 
			CHANNELS 1 Zrotation
			JOINT RightAnkle
			{
				OFFSET 0.000000 -0.404085 0.000000 
				CHANNELS 3 Zrotation Xrotation Yrotation
				End Site
				{
					OFFSET 0.204105 -0.089430 0.008415 
				}
			}
		}
	}
	JOINT LeftHip
	{
		OFFSET 0.052140 -0.069960 -0.075570 
		CHANNELS 3 Zrotation Xrotation Yrotation
		JOINT LeftKnee
		{
			OFFSET 0.000000 -0.402270 0.000000 
			CHANNELS 1 Zrotation
			JOINT LeftAnkle
			{
				OFFSET 0.000000 -0.404085 0.000000 
				CHANNELS 3 Zrotation Xrotation Yrotation
				End Site
				{
					OFFSET 0.204105 -0.089430 -0.008415 
				}
			}
		}
	}
}
MOTION
Frames: 24
Frame Time: 0.02
-0.00136 -0.00138 0.00168 33.9127 -16.92992 -13.30664 39.76501 5.86705 -5.25215 -16.6059 3.07848 -1.19661 -25.61591 -22.6548 -19.08164 131.42469 58.13872 -16.61014 2.98979 -12.9154 14.40447 28.57457 134.3012 -42.85372 -18.83564 -6.29188 31.85937 7.85646 -22.87981 -22.01078 -6.2108 -0.84887 -2.63199 46.19359 22.80953 -10.51848 -32.07592 -8.20786 2.37696 3.47084
-0.00112 -0.00132 0.00179 33.96203 -16.88824 -13.31122 39.78772 5.79532 -5.47133 -16.27929 2.82931 -1.19927 -24.97042 -20.67266 -18.75207 131.37846 59.0812 -16.91165 2.70318 -13.20285 13.63895 26.80228 134.30133 -42.58593 -19.00524 -6.29217 31.80187 7.86156 -22.9269 -22.00117 -6.21774 -0.84003 -2.62905 46.09553 22.80669 -10.6099 -32.04196 -8.21155 2.39093 3.4779
-0.00087 -0.00126 0.0019 34.01102 -16.84673 -13.31579 39.81039 5.72382 -5.69004 -15.9533 2.58084 -1.20193 -24.32774 -18.69821 -18.42304 131.33184 60.02194 -17.21201 2.4172 -13.49094 12.87597 25.03549 134.30115 -42.32119 -19.17449 -6.29188 31.7446 7.86663 -22.97385 -21.9916 -6.22467 -0.8312 -2.62612 45.99779 22.80389 -10.70103 -32.00815 -8.21524 2.40487 3.48495
-0.00063 -0.0012 0.00201 34.06016 -16.80519 -13.32036 39.83304 5.65232 -5.90858 -15.62761 2.33242 -1.20458 -23.68439 -16.72247 -18.09435 131.28563 60.96185 -17.5125 2.13141 -13.7778 12.11286 23.26863 134.30121 -42.05477 -19.34357 -6.29204 31.68729 7.8717 -23.0208 -21.98202 -6.23159 -0.82238 -2.62319 45.90003 22.80106 -10.79216 -31.9743 -8.21892 2.4188 3.492
-0.00038 -0.00114 0.00212 34.10971 -16.76347 -13.32495 39.85571 5.58059 -6.1275 -15.30148 2.08332 -1.20724 -23.03787 -14.73832 -17.76544 131.24008 61.90265 -17.81437 1.84515 -14.06333 11.34708 21.49633 134.30176 -41.78395 -19.51303 -6.29308 31.62971 7.87681 -23.0679 -21.97239 -6.23853 -0.81354 -2.62026 45.80194 22.79817 -10.88361 -31.94028 -8.22261 2.43276 3.49906
-0.00014 -0.00108 0.00223 34.15753 -16.7224 -13.32947 39.87839 5.50957 -6.34575 -14.97585 1.83619 -1.20988 -22.40327 -12.7843 -17.43627 131.19126 62.84296 -18.11164 1.55983 -14.35667 10.58998 19.74127 134.30006 -41.53168 -19.68187 -6.29006 31.57312 7.8818 -23.11455 -21.96294 -6.24544 -0.80473 -2.61733 45.70496 22.79555 -10.97406 -31.90694 -8.22629 2.44664 3.50607
0.00011 -0.00101 0.00235 34.20875 -16.68007 -13.33412 39.90102 5.43721 -6.56511 -14.64946 1.58536 -1.21255 -21.74559 -10.77224 -17.10762 131.14887 63.78429 -18.41738 1.27276 -14.63432 9.81649 17.95334 134.30273 -41.2438 -19.85153 -6.29495 31.51462 7.88701 -23.16204 -21.95317 -6.25239 -0.79588 -2.6144 45.60584 22.79242 -11.06635 -31.87227 -8.22999 2.46066 3.51318
0.00035 -0.00095 0.00246 34.2569 -16.63889 -13.33867 39.92372 5.36607 -6.78346 -14.32395 1.33796 -1.2152 -21.10881 -8.81293 -16.77914 131.10092 64.72272 -18.71615 0.98761 -14.92581 9.05768 16.19595 134.30169 -40.98616 -20.0209 -6.29305 31.45785 7.89204 -23.20875 -21.94365 -6.25932 -0.78706 -2.61147 45.50869 22.78972 -11.15709 -31.8388 -8.23368 2.47456 3.52021
0.00059 -0.00089 0.00256 34.30102 -16.59916 -13.34301 39.94642 5.29644 -7.00065 -13.99863 1.09455 -1.21783 -20.49897 -6.92059 -16.44806 131.04458 65.66598 -19.00316 0.70341 -15.23713 8.31824 14.47425 134.2948 -40.77608 -20.18814 -6.28076 31.40328 7.89676 -23.25455 -21.93459 -6.26618 -0.77828 -2.60853 45.41394 22.78771 -11.24537 -31.80689 -8.23729 2.48829 3.52711
0.00085 -0.00082 0.00269 34.36751 -16.5512 -13.34829 39.96886 5.21818 -7.22476 -13.66951 0.82759 -1.22059 -19.73833 -4.65042 -16.12349 131.03174 66.60667 -19.3481 0.40955 -15.44315 7.47161 12.54221 134.3176 -40.32423 -20.36231 -6.32193 31.33629 7.90299 -23.30573 -21.92335 -6.27331 -0.76927 -2.60562 45.30537 22.78222 -11.34614 -31.76632 -8.24116 2.50294 3.53463
0.00107 -0.00078 0.00278 34.38733 -16.52055 -13.35178 39.99202 5.15812 -7.43408 -13.3502 0.61073 -1.22306 -19.29312 -3.1726 -15.79065 130.93021 67.53646 -19.57704 0.13882 -15.86552 6.84845 11.05726 134.28031 -40.36188 -20.52521 -6.2544 31.29538 7.90621 -23.34545 -21.91643 -6.27992 -0.76075 -2.60266 45.22596 22.78376 -11.42159 -31.74379 -8.24459 2.51568 3.54091
0.00116 -0.00088 0.00274 34.27341 -16.53811 -13.34871 40.01591 5.14859 -7.60399 -13.04366 0.52921 -1.22475 -19.74424 -3.92971 -15.38992 130.55725 68.57236 -19.4325 -0.09095 -16.93449 6.86811 10.78416 134.05518 -41.92844 -20.62878 -5.85141 31.32778 7.89956 -23.35457 -21.92381 -6.28468 -0.75359 -2.59954 45.22726 22.80738 -11.41835 -31.77307 -8.24602 2.52285 3.54335
0.0012 -0.00103 0.00266 34.11378 -16.57289 -13.34413 40.04081 5.15722 -7.75873 -12.74986 0.49837 -1.22616 -20.50622 -5.47098 -14.98927 130.10041 69.57319 -19.18101 -0.2935 -18.20993 7.10776 10.96298 133.77367 -43.95399 -20.72581 -5.34586 31.38604 7.89014 -23.35223 -21.93513 -6.28897 -0.7469 -2.59638 45.25771 22.83759 -11.39119 -31.82 -8.24713 2.52815 3.54461
0.00126 -0.00114 0.0026 33.97862 -16.59932 -13.34133 40.06598 5.1572 -7.91974 -12.45912 0.44578 -1.22769 -21.10611 -6.61414 -14.61808 129.70025 70.4999 -19.01542 -0.49362 -19.35764 7.22603 10.94452 133.53337 -45.64586 -20.84499 -4.91187 31.43133 7.88311 -23.35431 -21.94302 -6.29374 -0.73996 -2.59327 45.27434 22.86292 -11.38129 -31.85742 -8.24894 2.53456 3.54669
0.00134 -0.00129 0.00253 33.82729 -16.62804 -13.33399 40.08783 5.15896 -8.08373 -12.12991 0.38798 -1.22924 -21.79524 -7.93611 -14.12232 129.22157 71.80232 -18.6951 -0.75551 -20.65302 7.43066 10.89195 133.22842 -47.85902 -20.88517 -4.37353 31.48183 7.87152 -23.35886 -21.95769 -6.2974 -0.73316 -2.59006 45.29339 22.89604 -11.3453 -31.90139 -8.24849 2.53994 3.5476
0.00137 -0.00139 0.00248 33.6994 -16.65603 -13.33564 40.11716 5.16122 -8.23744 -11.88529 0.3529 -1.23069 -22.37125 -9.07023 -13.88607 128.88653 72.31942 -18.668 -0.88312 -21.68457 7.51313 11.01858 133.04318 -49.10487 -21.08588 -4.02672 31.5276 7.86849 -23.35658 -21.95937 -6.30324 -0.72618 -2.58703 45.31438 22.91471 -11.35682 -31.93563 -8.25258 2.54694 3.55061
0.00128 -0.00131 0.00248 33.64269 -16.67809 -13.36348 40.16386 5.16103 -8.37046 -11.85868 0.36942 -1.23195 -22.56576 -9.50156 -14.36671 128.96969 70.63031 -19.50967 -0.63978 -21.97989 7.15601 11.52017 133.21626 -47.48396 -21.75192 -4.2471 31.55403 7.89241 -23.32928 -21.92245 -6.31551 -0.71876 -2.58464 45.33278 22.88993 -11.51551 -31.94073 -8.27007 2.55959 3.56036
0.00115 -0.00117 0.00249 33.6121 -16.69874 -13.40024 40.21852 5.16058 -8.49279 -11.91896 0.40686 -1.23313 -22.63443 -9.71493 -15.1087 129.20031 68.16199 -20.64428 -0.26374 -21.99427 6.67744 12.18872 133.50923 -44.8906 -22.57541 -4.66109 31.57478 7.92459 -23.29694 -21.87267 -6.32994 -0.71113 -2.58241 45.35224 22.85069 -11.72105 -31.93508 -8.29201 2.57378 3.57215
0.00103 -0.00106 0.00251 33.57257 -16.71989 -13.43228 40.27161 5.15986 -8.61759 -11.94774 0.43377 -1.23437 -22.75589 -10.02288 -15.73048 129.36259 66.0792 -21.62284 0.04733 -22.10939 6.28602 12.78599 133.7381 -42.79507 -23.31403 -4.97813 31.59812 7.95122 -23.2731 -21.82992 -6.34323 -0.70344 -2.57998 45.37174 22.81939 -11.89836 -31.93296 -8.31141 2.5868 3.58256
0.00093 -0.00095 0.00249 33.5188 -16.74234 -13.46709 40.31644 5.16148 -8.75252 -11.94369 0.4665 -1.23552 -22.9062 -10.37761 -16.35725 129.5269 63.85744 -22.69328 0.37991 -22.34634 5.76691 13.37705 134.00538 -40.47351 -24.11074 -5.33046 31.62239 7.98519 -23.22365 -21.78225 -6.35725 -0.69631 -2.57803 45.3901 22.78273 -12.1037 -31.93702 -8.33295 2.60176 3.59483
0.00078 -0.00083 0.00254 33.50182 -16.76139 -13.49828 40.37993 5.15785 -8.86327 -12.02794 0.49175 -1.23683 -22.96318 -10.57226 -17.03706 129.7239 61.74699 -23.64478 0.69776 -22.25897 5.48265 14.01803 134.22214 -38.39344 -24.82132 -5.65531 31.64297 8.00607 -23.22525 -21.7418 -6.37017 -0.68808 -2.57518 45.41065 22.75349 -12.26266 -31.9256 -8.35113 2.61302 3.60373
0.00051 -0.00073 0.00275 33.57734 -16.77257 -13.51739 40.49662 5.1403 -8.91634 -12.33946 0.4881 -1.23859 -22.78553 -10.38043 -17.78801 129.96839 60.08011 -24.18468 0.95115 -21.35548 5.86981 14.72665 134.26784 -37.15412 -25.27689 -5.86764 31.65524 7.98697 -23.3799 -21.72376 -6.38027 -0.67587 -2.56924 45.4373 22.75016 -12.27727 -31.87253 -8.35864 2.61426 3.60297
0.0002 -0.00064 0.00303 33.68964 -16.7801 -13.53257 40.63114 5.11734 -8.94435 -12.73586 0.47659 -1.24051 -22.5181 -10.03103 -18.58556 130.2422 58.56296 -24.59785 1.18302 -20.13371 6.49708 15.48304 134.25925 -36.20334 -25.63579 -6.04343 31.6638 7.95478 -23.58419 -21.71354 -6.38904 -0.66275 -2.56248 45.46593 22.75446 -12.24461 -31.80448 -8.36268 2.61162 3.59876
-0.0001 -0.00055 0.00328 33.78719 -16.78842 -13.54947 40.75511 5.09634 -8.97965 -13.09033 0.47042 -1.24235 -22.29533 -9.74783 -19.36908 130.50761 57.01252 -25.07665 1.41937 -19.04772 7.01854 16.23442 134.27725 -35.15721 -26.02576 -6.23037 31.67357 7.92977 -23.75867 -21.70015 -6.39792 -0.65071 -2.55648 45.49327 22.75395 -12.23684 -31.74413 -8.36852 2.61037 3.59604
